<svg width="290" height="250" viewBox="0 0 290 250" fill="none" xmlns="http://www.w3.org/2000/svg">
<path d="M128.307 206.105C140.315 208.011 138.781 225.659 126.622 225.485L15.9368 223.896C4.10979 223.726 -3.52778 211.38 1.64692 200.798L47.4682 107.087C51.7428 98.3452 65.0279 103.54 62.177 112.839L39.5825 173.478C36.2069 182.538 42.002 192.406 51.5916 193.928L128.307 206.105Z" fill="#BC6FF8"/>
<path d="M161.693 203.818C149.685 205.724 151.219 223.372 163.378 223.197L274.063 221.608C285.89 221.438 293.528 209.093 288.353 198.51L242.532 104.8C238.257 96.0579 224.972 101.253 227.823 110.551L250.417 171.191C253.793 180.251 247.998 190.119 238.408 191.641L161.693 203.818Z" fill="#BC6FF8"/>
<path d="M203.537 89.5637C222.117 71.1011 251.857 94.3328 238.241 116.673L163.468 239.355C154.713 253.72 133.689 253.504 125.233 238.963L52.133 113.258C39.1824 90.9876 68.4388 68.3856 86.9146 86.3873L131.712 130.035C140.412 138.512 154.347 138.443 162.962 129.882L203.537 89.5637Z" fill="#D2AAF1"/>
<path d="M194.358 43.458C194.358 67.4592 174.803 86.916 150.681 86.916C126.559 86.916 107.004 67.4592 107.004 43.458C107.004 19.4568 126.559 0 150.681 0C174.803 0 194.358 19.4568 194.358 43.458Z" fill="#B66EEF"/>
</svg>
